<svg width="200" height="200" viewBox="0 0 200 200" fill="none" xmlns="http://www.w3.org/2000/svg">
<path fill-rule="evenodd" clip-rule="evenodd" d="M75.8209 197.014C129.458 210.366 183.684 177.674 197.027 124.135C210.339 70.5635 177.698 16.1739 124.029 2.98561C70.5226 -10.3663 16.3295 22.3263 2.9857 75.865C-10.3581 129.404 22.2819 183.63 75.8209 197.014ZM125.131 61.9538C139.019 66.6666 149.15 73.6377 147.353 86.9906C145.98 96.7108 140.686 101.456 133.366 103.125C143.366 108.264 148.366 116.053 143.791 129.7C138.104 146.817 124.085 148.355 105.327 145.017L101.013 163.247L90.0325 160.596L94.3462 142.661C91.5684 141.973 88.6599 141.253 85.588 140.435L81.2743 158.501L70.2939 155.85L74.6076 137.621C73.098 137.183 71.528 136.806 69.9344 136.423C68.9061 136.176 67.868 135.927 66.8299 135.657L52.5161 132.319L57.7122 119.653C57.7122 119.653 65.9148 121.748 65.7841 121.617C68.8233 122.304 70.2286 120.34 70.7841 118.966L77.4508 90.1652C77.6632 90.2307 77.8348 90.2634 78.0063 90.2961C78.1779 90.3289 78.3495 90.3616 78.5619 90.4271C78.287 90.2365 78.0259 90.1692 77.7961 90.11C77.6707 90.0777 77.5546 90.0478 77.4508 90.0016L82.3201 69.4158C82.4835 67.1903 81.6338 64.2775 77.1893 63.1647C77.4835 63.0011 69.2808 61.2011 69.2808 61.2011L72.0586 49.5172L87.1893 53.15C88.3658 53.4282 89.5504 53.6737 90.7351 53.9191C91.9197 54.1646 93.1044 54.41 94.2808 54.6882L98.5946 36.6224L109.706 39.2734L105.523 56.9465C108.431 57.5356 111.372 58.2228 114.281 58.9101L118.464 41.2371L129.444 43.888L125.131 61.9538ZM90.9492 127.669C99.7777 129.936 119.687 135.05 122.647 122.435C125.626 109.652 106.962 105.627 97.5979 103.608C96.4852 103.368 95.5039 103.156 94.7057 102.962L89.0194 127.18C89.5782 127.317 90.2266 127.483 90.9492 127.669ZM98.8575 92.2508C106.221 94.1548 122.983 98.4886 125.686 86.9906C128.428 75.4506 112.785 72.0996 105.049 70.4423C104.119 70.243 103.303 70.0683 102.647 69.9067L97.3527 91.8671C97.7933 91.9756 98.2983 92.1062 98.8575 92.2508Z" fill="black"/>
</svg>
