<svg version="1.2" xmlns="http://www.w3.org/2000/svg" viewBox="0 0 80 80" width="80" height="80">
	<title>circle-file-svg</title>
	<defs>
		<clipPath clipPathUnits="userSpaceOnUse" id="cp1">
			<path d="m40 0c22.09 0 40 17.91 40 40 0 22.09-17.91 40-40 40-22.09 0-40-17.91-40-40 0-22.09 17.91-40 40-40z"/>
		</clipPath>
	</defs>
	<style>
		.s0 { opacity: .3;fill: #3ca3de }
		.s1 { fill: #3ca3de }
	</style>
	<g id="Clip-Path" clip-path="url(#cp1)">
		<g>
			<path class="s0" d="m40 80c-22.1 0-40-17.9-40-40 0-22.1 17.9-40 40-40 22.1 0 40 17.9 40 40 0 22.1-17.9 40-40 40z"/>
			<path fill-rule="evenodd" class="s1" d="m54 32.8v22.7c0 2-1.6 3.6-3.5 3.6h-21c-1.9 0-3.5-1.6-3.5-3.6v-31c0-2 1.6-3.6 3.5-3.6h12.8zm-14-8.1v9.9c0 0.3 0.3 0.6 0.6 0.6h9.7c0.5 0 0.8-0.6 0.4-1l-9.7-9.9c-0.3-0.4-1-0.1-1 0.4z"/>
		</g>
	</g>
</svg>