<svg version="1.2" xmlns="http://www.w3.org/2000/svg" viewBox="0 0 80 80" width="80" height="80">
	<title>Circle arrow up-svg</title>
	<defs>
		<clipPath clipPathUnits="userSpaceOnUse" id="cp1">
			<path d="m40 0c22.09 0 40 17.91 40 40 0 22.09-17.91 40-40 40-22.09 0-40-17.91-40-40 0-22.09 17.91-40 40-40z"/>
		</clipPath>
	</defs>
	<style>
		.s0 { opacity: .3;fill: #36b46b }
		.s1 { fill: none;stroke: #27ae60;stroke-linecap: round;stroke-linejoin: round;stroke-width: 1.3 }
	</style>
	<g id="Clip-Path" clip-path="url(#cp1)">
		<g>
			<path class="s0" d="m40 80c-22.1 0-40-17.9-40-40 0-22.1 17.9-40 40-40 22.1 0 40 17.9 40 40 0 22.1-17.9 40-40 40z"/>
			<path fill-rule="evenodd" class="s1" d="m29.3 42l8.5 7.3 12.2-18.6"/>
		</g>
	</g>
</svg>