<svg xmlns="http://www.w3.org/2000/svg" viewBox="0 0 24 24" fill="currentColor">
  <path fill-rule="evenodd" d="M17.653 10.35l2.056.336a.347.347 0 01.291.343v1.913a.348.348 0 01-.288.342l-2.058.362a5.82 5.82 0 01-.49 1.185l1.217 1.69c.1.138.084.328-.036.45l-1.353 1.352a.347.347 0 01-.445.04l-1.707-1.198c-.376.21-.776.377-1.193.5l-.363 2.048a.347.347 0 01-.343.287h-1.913a.347.347 0 01-.343-.29l-.34-2.039a5.87 5.87 0 01-1.197-.495l-1.694 1.186a.348.348 0 01-.446-.038L5.655 16.97a.349.349 0 01-.036-.448l1.197-1.674a5.865 5.865 0 01-.5-1.204l-2.029-.36A.348.348 0 014 12.942v-1.913c0-.17.123-.315.29-.343l2.03-.338c.121-.42.289-.822.5-1.203L5.636 7.453a.347.347 0 01.039-.445l1.352-1.352c.12-.12.31-.136.448-.037l1.68 1.2a5.86 5.86 0 011.196-.491l.333-2.036A.348.348 0 0111.028 4h1.913c.17 0 .314.122.343.288l.359 2.047c.415.121.815.287 1.193.497l1.685-1.211a.348.348 0 01.45.036l1.352 1.352c.12.12.136.308.039.446l-1.2 1.71c.206.376.37.772.49 1.185zM9.565 12a2.435 2.435 0 104.87 0 2.435 2.435 0 00-4.87 0z" clip-rule="evenodd"/>
</svg>
