<svg width="30" height="30" viewBox="0 0 30 30" fill="none" xmlns="http://www.w3.org/2000/svg">
<path d="M9.95798 10.5966C9.95798 7.68206 12.3207 5.31933 15.2353 5.31933C18.1499 5.31933 20.5126 7.68206 20.5126 10.5966V15.8739H9.95798V10.5966Z" stroke="black" stroke-width="2.63866"/>
<path fill-rule="evenodd" clip-rule="evenodd" d="M7.31933 13.2353C6.59068 13.2353 6 13.826 6 14.5546V25.1092C6 25.8379 6.59068 26.4286 7.31933 26.4286H23.1513C23.8799 26.4286 24.4706 25.8379 24.4706 25.1092V14.5546C24.4706 13.826 23.8799 13.2353 23.1513 13.2353H7.31933ZM15.2353 22.4706C16.6926 22.4706 17.8739 21.2892 17.8739 19.8319C17.8739 18.3746 16.6926 17.1933 15.2353 17.1933C13.778 17.1933 12.5966 18.3746 12.5966 19.8319C12.5966 21.2892 13.778 22.4706 15.2353 22.4706Z" fill="black"/>
</svg>
