<svg width="30" height="30" viewBox="0 0 30 30" fill="none" xmlns="http://www.w3.org/2000/svg">
<path fill-rule="evenodd" clip-rule="evenodd" d="M8.5 10C10.5 10 15 7 15 7C15 7 19.5 10 21.5 10V14.5C21.5 21 15 23 15 23C15 23 8.5 21 8.5 14.5V10Z" fill="white"/>
<path d="M15 7L15.2773 6.58397C15.1094 6.47201 14.8906 6.47201 14.7227 6.58397L15 7ZM8.5 10V9.5C8.22386 9.5 8 9.72386 8 10H8.5ZM21.5 10H22C22 9.72386 21.7761 9.5 21.5 9.5V10ZM15 23L14.853 23.4779C14.9488 23.5074 15.0512 23.5074 15.147 23.4779L15 23ZM15 7C14.7227 6.58397 14.7227 6.58396 14.7227 6.58395C14.7227 6.58397 14.7227 6.58397 14.7226 6.584C14.7225 6.58405 14.7224 6.58415 14.7222 6.5843C14.7217 6.58459 14.721 6.58505 14.7201 6.5857C14.7181 6.58699 14.7151 6.58899 14.7111 6.59167C14.7029 6.59704 14.6907 6.60514 14.6744 6.6158C14.642 6.63712 14.5937 6.66866 14.5314 6.70895C14.4066 6.78955 14.2256 6.9051 14.0019 7.04393C13.5541 7.32187 12.9375 7.6918 12.2606 8.06105C11.5821 8.43112 10.8513 8.79596 10.1737 9.06701C9.48182 9.34376 8.89977 9.5 8.5 9.5V10.5C9.10023 10.5 9.83068 10.2812 10.5451 9.99549C11.2737 9.70404 12.0429 9.31888 12.7394 8.93895C13.4375 8.5582 14.0709 8.17813 14.5293 7.89357C14.7588 7.75115 14.9449 7.63233 15.0741 7.54886C15.1387 7.50713 15.1891 7.47421 15.2235 7.45158C15.2407 7.44027 15.254 7.43153 15.263 7.42554C15.2675 7.42255 15.271 7.42024 15.2734 7.41865C15.2746 7.41785 15.2755 7.41723 15.2762 7.4168C15.2765 7.41658 15.2768 7.4164 15.277 7.41627C15.2771 7.41621 15.2772 7.41615 15.2772 7.41612C15.2773 7.41606 15.2773 7.41603 15 7ZM15 7C14.7227 7.41603 14.7227 7.41606 14.7228 7.41612C14.7228 7.41615 14.7229 7.41621 14.723 7.41627C14.7232 7.4164 14.7235 7.41658 14.7238 7.4168C14.7245 7.41723 14.7254 7.41785 14.7266 7.41865C14.729 7.42024 14.7325 7.42255 14.737 7.42554C14.746 7.43153 14.7593 7.44027 14.7765 7.45158C14.8109 7.47421 14.8613 7.50713 14.9259 7.54886C15.0551 7.63233 15.2412 7.75115 15.4707 7.89357C15.9291 8.17813 16.5625 8.5582 17.2606 8.93895C17.9571 9.31888 18.7263 9.70404 19.4549 9.99549C20.1693 10.2812 20.8998 10.5 21.5 10.5V9.5C21.1002 9.5 20.5182 9.34376 19.8263 9.06701C19.1487 8.79596 18.4179 8.43112 17.7394 8.06105C17.0625 7.6918 16.4459 7.32187 15.9981 7.04393C15.7744 6.9051 15.5934 6.78955 15.4686 6.70895C15.4063 6.66866 15.358 6.63712 15.3256 6.6158C15.3093 6.60514 15.2971 6.59704 15.2889 6.59167C15.2849 6.58899 15.2819 6.58699 15.2799 6.5857C15.279 6.58505 15.2783 6.58459 15.2778 6.5843C15.2776 6.58415 15.2775 6.58405 15.2774 6.584C15.2773 6.58397 15.2773 6.58397 15.2773 6.58395C15.2773 6.58396 15.2773 6.58397 15 7ZM21 10V14.5H22V10H21ZM21 14.5C21 17.5577 19.4797 19.5516 17.9358 20.7985C17.1614 21.424 16.3848 21.8574 15.8013 22.1342C15.5102 22.2723 15.2688 22.3706 15.102 22.4338C15.0187 22.4654 14.9542 22.4882 14.9116 22.5027C14.8903 22.51 14.8745 22.5152 14.8646 22.5184C14.8597 22.52 14.8562 22.5211 14.8542 22.5217C14.8532 22.522 14.8526 22.5222 14.8524 22.5223C14.8523 22.5223 14.8523 22.5223 14.8524 22.5223C14.8524 22.5223 14.8526 22.5222 14.8526 22.5222C14.8528 22.5222 14.853 22.5221 15 23C15.147 23.4779 15.1473 23.4778 15.1475 23.4777C15.1477 23.4777 15.148 23.4776 15.1482 23.4775C15.1487 23.4774 15.1493 23.4772 15.1499 23.477C15.1513 23.4766 15.1531 23.476 15.1552 23.4753C15.1595 23.474 15.1653 23.4721 15.1727 23.4697C15.1874 23.465 15.2081 23.4582 15.2344 23.4492C15.287 23.4312 15.3621 23.4047 15.4565 23.3689C15.6453 23.2973 15.9117 23.1886 16.2299 23.0377C16.8652 22.7363 17.7136 22.2635 18.5642 21.5765C20.2703 20.1984 22 17.9423 22 14.5H21ZM8 14.5C8 17.9423 9.72968 20.1984 11.4358 21.5765C12.2864 22.2635 13.1348 22.7363 13.7701 23.0377C14.0883 23.1886 14.3547 23.2973 14.5435 23.3689C14.6379 23.4047 14.713 23.4312 14.7656 23.4492C14.7919 23.4582 14.8126 23.465 14.8273 23.4697C14.8347 23.4721 14.8405 23.474 14.8448 23.4753C14.8469 23.476 14.8487 23.4766 14.8501 23.477C14.8507 23.4772 14.8513 23.4774 14.8518 23.4775C14.852 23.4776 14.8523 23.4777 14.8525 23.4777C14.8527 23.4778 14.853 23.4779 15 23C15.147 22.5221 15.1472 22.5222 15.1474 22.5222C15.1474 22.5222 15.1476 22.5223 15.1476 22.5223C15.1477 22.5223 15.1477 22.5223 15.1476 22.5223C15.1474 22.5222 15.1468 22.522 15.1458 22.5217C15.1438 22.5211 15.1403 22.52 15.1354 22.5184C15.1255 22.5152 15.1097 22.51 15.0884 22.5027C15.0458 22.4882 14.9813 22.4654 14.898 22.4338C14.7312 22.3706 14.4898 22.2723 14.1987 22.1342C13.6152 21.8574 12.8386 21.424 12.0642 20.7985C10.5203 19.5516 9 17.5577 9 14.5H8ZM8 10V14.5H9V10H8Z" fill="white"/>
</svg>
