<svg width="61" height="61" viewBox="0 0 61 61" fill="none" xmlns="http://www.w3.org/2000/svg">
<g clip-path="url(#clip0_2643_66325)">
<path d="M43 12.5C47.766 15.2516 51.4909 19.4991 53.597 24.5835C55.703 29.6679 56.0725 35.3052 54.6481 40.6211C53.2238 45.9369 50.0851 50.6342 45.719 53.9844C41.3529 57.3346 36.0034 59.1506 30.5 59.1506C24.9966 59.1506 19.6471 57.3346 15.281 53.9844C10.9149 50.6342 7.77624 45.9369 6.35186 40.6211C4.92749 35.3052 5.29698 29.668 7.40302 24.5835C9.50906 19.4991 13.234 15.2517 18 12.5" stroke="white" stroke-width="3.64954" stroke-linecap="round"/>
<rect x="32.1672" y="30.5" width="3.33333" height="30" rx="1.66667" transform="rotate(-180 32.1672 30.5)" fill="white"/>
</g>
<defs>
<clipPath id="clip0_2643_66325">
<rect x="0.5" y="0.5" width="60" height="60" rx="30" fill="white"/>
</clipPath>
</defs>
</svg>
