<svg width="25" height="25" viewBox="0 0 25 25" fill="none" xmlns="http://www.w3.org/2000/svg">
<path fill-rule="evenodd" clip-rule="evenodd" d="M19.7479 13.7803C18.0989 15.4293 15.6634 15.8123 13.649 14.9294L9.61265 18.9658C7.98547 20.593 5.34728 20.593 3.7201 18.9658C3.39466 18.6403 3.39466 18.1127 3.7201 17.7873L10.4773 11.0301C10.107 9.27187 10.6044 7.36742 11.9697 6.00215C14.1176 3.85427 17.6 3.85427 19.7479 6.00215C21.8957 8.15004 21.8957 11.6324 19.7479 13.7803ZM14.4446 11.3055C15.2256 12.0865 16.4919 12.0865 17.273 11.3055C18.054 10.5244 18.054 9.25808 17.273 8.47703C16.4919 7.69598 15.2256 7.69598 14.4446 8.47703C13.6635 9.25808 13.6635 10.5244 14.4446 11.3055Z" fill="white"/>
</svg>
