<svg width="24" height="24" viewBox="0 0 24 24" fill="none" xmlns="http://www.w3.org/2000/svg">
<path d="M12 16.5C9.5187 16.5 7.5 14.4813 7.5 12C7.5 9.5187 9.5187 7.5 12 7.5C14.4813 7.5 16.5 9.5187 16.5 12C16.5 14.4813 14.4813 16.5 12 16.5Z" fill="black"/>
<path fill-rule="evenodd" clip-rule="evenodd" d="M12 3C12.2761 3 12.5 3.22386 12.5 3.5V5.5C12.5 5.77614 12.2761 6 12 6C11.7239 6 11.5 5.77614 11.5 5.5V3.5C11.5 3.22386 11.7239 3 12 3Z" fill="black"/>
<path fill-rule="evenodd" clip-rule="evenodd" d="M18 12C18 11.7239 18.2239 11.5 18.5 11.5H20.5C20.7761 11.5 21 11.7239 21 12C21 12.2761 20.7761 12.5 20.5 12.5H18.5C18.2239 12.5 18 12.2761 18 12Z" fill="black"/>
<path fill-rule="evenodd" clip-rule="evenodd" d="M3 12C3 11.7239 3.22386 11.5 3.5 11.5H5.5C5.77614 11.5 6 11.7239 6 12C6 12.2761 5.77614 12.5 5.5 12.5H3.5C3.22386 12.5 3 12.2761 3 12Z" fill="black"/>
<path fill-rule="evenodd" clip-rule="evenodd" d="M12 18C12.2761 18 12.5 18.2239 12.5 18.5V20.5C12.5 20.7761 12.2761 21 12 21C11.7239 21 11.5 20.7761 11.5 20.5V18.5C11.5 18.2239 11.7239 18 12 18Z" fill="black"/>
<path fill-rule="evenodd" clip-rule="evenodd" d="M18.3536 5.64645C18.5488 5.84171 18.5488 6.15829 18.3536 6.35355L16.8536 7.85355C16.6583 8.04882 16.3417 8.04882 16.1464 7.85355C15.9512 7.65829 15.9512 7.34171 16.1464 7.14645L17.6464 5.64645C17.8417 5.45118 18.1583 5.45118 18.3536 5.64645Z" fill="black"/>
<path fill-rule="evenodd" clip-rule="evenodd" d="M7.85355 16.1464C8.04882 16.3417 8.04882 16.6583 7.85355 16.8536L6.35355 18.3536C6.15829 18.5488 5.84171 18.5488 5.64645 18.3536C5.45118 18.1583 5.45118 17.8417 5.64645 17.6464L7.14645 16.1464C7.34171 15.9512 7.65829 15.9512 7.85355 16.1464Z" fill="black"/>
<path fill-rule="evenodd" clip-rule="evenodd" d="M5.64645 5.64645C5.84171 5.45118 6.15829 5.45118 6.35355 5.64645L7.85355 7.14645C8.04882 7.34171 8.04882 7.65829 7.85355 7.85355C7.65829 8.04882 7.34171 8.04882 7.14645 7.85355L5.64645 6.35355C5.45118 6.15829 5.45118 5.84171 5.64645 5.64645Z" fill="black"/>
<path fill-rule="evenodd" clip-rule="evenodd" d="M16.1464 16.1464C16.3417 15.9512 16.6583 15.9512 16.8536 16.1464L18.3536 17.6464C18.5488 17.8417 18.5488 18.1583 18.3536 18.3536C18.1583 18.5488 17.8417 18.5488 17.6464 18.3536L16.1464 16.8536C15.9512 16.6583 15.9512 16.3417 16.1464 16.1464Z" fill="black"/>
</svg>
