<svg width="30" height="30" viewBox="0 0 30 30" fill="none" xmlns="http://www.w3.org/2000/svg">
<rect x="14.9286" y="6.5" width="11.5714" height="17.2857" rx="1.5" stroke="#2D9CDB"/>
<path fill-rule="evenodd" clip-rule="evenodd" d="M5 6C3.89543 6 3 6.89543 3 8V22.2857C3 23.3903 3.89543 24.2857 5 24.2857H20.4286C21.5331 24.2857 22.4286 23.3903 22.4286 22.2857V8C22.4286 6.89543 21.5331 6 20.4286 6H5ZM8.25713 16.9714C9.39326 16.9714 10.3143 16.0504 10.3143 14.9143C10.3143 13.7782 9.39326 12.8571 8.25713 12.8571C7.121 12.8571 6.19999 13.7782 6.19999 14.9143C6.19999 16.0504 7.121 16.9714 8.25713 16.9714Z" fill="#2D9CDB"/>
</svg>
