<svg width="200" height="200" viewBox="0 0 200 200" fill="none" xmlns="http://www.w3.org/2000/svg">
<rect x="54.9277" y="50" width="90" height="30" rx="3" fill="#EDEDED"/>
<path d="M66.5918 63.8333L69.9251 60.4999L73.2585 63.8333" stroke="black" stroke-linecap="round" stroke-linejoin="round"/>
<line x1="69.9277" y1="61.3333" x2="69.9277" y2="68.9999" stroke="black" stroke-linecap="round" stroke-linejoin="round"/>
<path d="M106.23 70.1491C105.498 70.1491 104.845 70.0231 104.27 69.771C103.698 69.5188 103.245 69.169 102.911 68.7216C102.581 68.2706 102.403 67.7486 102.379 67.1555H104.051C104.072 67.4787 104.181 67.7592 104.376 67.9972C104.575 68.2315 104.834 68.4126 105.154 68.5405C105.473 68.6683 105.828 68.7322 106.219 68.7322C106.649 68.7322 107.029 68.6577 107.359 68.5085C107.693 68.3594 107.954 68.1516 108.142 67.8853C108.33 67.6154 108.424 67.3047 108.424 66.9531C108.424 66.5874 108.33 66.266 108.142 65.989C107.957 65.7085 107.686 65.4883 107.327 65.3285C106.972 65.1687 106.542 65.0888 106.038 65.0888H105.116V63.7464H106.038C106.443 63.7464 106.798 63.6737 107.103 63.5281C107.412 63.3825 107.654 63.18 107.828 62.9208C108.002 62.658 108.089 62.3509 108.089 61.9993C108.089 61.6619 108.012 61.369 107.86 61.1204C107.711 60.8683 107.497 60.6712 107.221 60.5291C106.947 60.3871 106.624 60.3161 106.251 60.3161C105.896 60.3161 105.564 60.3817 105.255 60.5131C104.95 60.641 104.701 60.8256 104.509 61.0671C104.317 61.305 104.214 61.5909 104.2 61.9247H102.608C102.625 61.3352 102.799 60.8168 103.13 60.3693C103.463 59.9219 103.904 59.5721 104.451 59.32C104.997 59.0678 105.605 58.9418 106.272 58.9418C106.972 58.9418 107.576 59.0785 108.083 59.3519C108.595 59.6218 108.989 59.9822 109.266 60.4332C109.547 60.8842 109.685 61.3778 109.681 61.9141C109.685 62.5249 109.515 63.0433 109.17 63.4695C108.829 63.8956 108.375 64.1815 107.806 64.3271V64.4123C108.531 64.5224 109.092 64.81 109.49 65.2752C109.891 65.7404 110.09 66.3175 110.086 67.0064C110.09 67.6065 109.923 68.1445 109.586 68.6204C109.252 69.0962 108.795 69.4709 108.217 69.7443C107.638 70.0142 106.975 70.1491 106.23 70.1491ZM113.211 70.1012C112.92 70.1012 112.669 69.9982 112.46 69.7923C112.25 69.5827 112.146 69.3306 112.146 69.0359C112.146 68.7447 112.25 68.4961 112.46 68.2901C112.669 68.0806 112.92 67.9759 113.211 67.9759C113.502 67.9759 113.753 68.0806 113.962 68.2901C114.172 68.4961 114.276 68.7447 114.276 69.0359C114.276 69.2312 114.227 69.4105 114.127 69.5739C114.031 69.7337 113.903 69.8615 113.744 69.9574C113.584 70.0533 113.406 70.1012 113.211 70.1012ZM116.635 70V68.8068L120.327 64.9822C120.721 64.5668 121.046 64.2028 121.301 63.8903C121.561 63.5742 121.754 63.2741 121.882 62.9901C122.01 62.706 122.074 62.4041 122.074 62.0845C122.074 61.7223 121.989 61.4098 121.818 61.147C121.648 60.8807 121.415 60.6765 121.12 60.5344C120.826 60.3888 120.494 60.3161 120.124 60.3161C119.734 60.3161 119.393 60.396 119.102 60.5558C118.81 60.7156 118.587 60.9411 118.43 61.2322C118.274 61.5234 118.196 61.8643 118.196 62.255H116.625C116.625 61.5909 116.777 61.0103 117.083 60.5131C117.388 60.016 117.807 59.6307 118.34 59.3572C118.872 59.0803 119.478 58.9418 120.156 58.9418C120.842 58.9418 121.445 59.0785 121.967 59.3519C122.493 59.6218 122.903 59.9911 123.198 60.4599C123.493 60.9251 123.64 61.4506 123.64 62.0366C123.64 62.4414 123.564 62.8374 123.411 63.2244C123.262 63.6115 123.001 64.043 122.628 64.5188C122.255 64.9911 121.736 65.5646 121.072 66.2393L118.904 68.5085V68.5884H123.816V70H116.635ZM125.875 67.8693V66.5376L130.589 59.0909H131.638V61.0511H130.973L127.601 66.3885V66.4737H134.062V67.8693H125.875ZM131.047 70V67.4645L131.058 66.8572V59.0909H132.619V70H131.047Z" fill="black"/>
<rect x="54.9277" y="85" width="90" height="30" rx="3" fill="#EDEDED"/>
<path d="M73.5938 101.667L70.2604 105L66.9271 101.667" stroke="black" stroke-linecap="round" stroke-linejoin="round"/>
<line x1="70.2285" y1="104.167" x2="70.2285" y2="96.5001" stroke="black" stroke-linecap="round" stroke-linejoin="round"/>
<path d="M98.0567 94.0909V105H96.4054V95.7422H96.3415L93.7314 97.4467V95.87L96.4533 94.0909H98.0567ZM102.641 105V103.807L106.332 99.9822C106.726 99.5668 107.051 99.2028 107.307 98.8903C107.566 98.5742 107.76 98.2741 107.888 97.9901C108.016 97.706 108.079 97.4041 108.079 97.0845C108.079 96.7223 107.994 96.4098 107.824 96.147C107.653 95.8807 107.421 95.6765 107.126 95.5344C106.831 95.3888 106.499 95.3161 106.13 95.3161C105.739 95.3161 105.398 95.396 105.107 95.5558C104.816 95.7156 104.592 95.9411 104.436 96.2322C104.28 96.5234 104.202 96.8643 104.202 97.255H102.63C102.63 96.5909 102.783 96.0103 103.088 95.5131C103.394 95.016 103.813 94.6307 104.345 94.3572C104.878 94.0803 105.484 93.9418 106.162 93.9418C106.847 93.9418 107.451 94.0785 107.973 94.3519C108.498 94.6218 108.909 94.9911 109.203 95.4599C109.498 95.9251 109.645 96.4506 109.645 97.0366C109.645 97.4414 109.569 97.8374 109.416 98.2244C109.267 98.6115 109.006 99.043 108.633 99.5188C108.261 99.9911 107.742 100.565 107.078 101.239L104.91 103.509V103.588H109.821V105H102.641ZM113.196 105.101C112.905 105.101 112.655 104.998 112.445 104.792C112.236 104.583 112.131 104.331 112.131 104.036C112.131 103.745 112.236 103.496 112.445 103.29C112.655 103.081 112.905 102.976 113.196 102.976C113.487 102.976 113.738 103.081 113.947 103.29C114.157 103.496 114.262 103.745 114.262 104.036C114.262 104.231 114.212 104.411 114.112 104.574C114.017 104.734 113.889 104.862 113.729 104.957C113.569 105.053 113.392 105.101 113.196 105.101ZM120.259 105.149C119.772 105.142 119.293 105.053 118.821 104.883C118.352 104.712 117.926 104.428 117.542 104.031C117.159 103.633 116.851 103.098 116.621 102.427C116.393 101.756 116.28 100.918 116.28 99.913C116.28 98.9613 116.374 98.1161 116.562 97.3775C116.754 96.6388 117.029 96.0156 117.388 95.5078C117.746 94.9964 118.18 94.6076 118.687 94.3413C119.195 94.0749 119.765 93.9418 120.397 93.9418C121.047 93.9418 121.624 94.0696 122.128 94.3253C122.633 94.581 123.041 94.9343 123.354 95.3853C123.67 95.8363 123.87 96.3494 123.955 96.9247H122.331C122.221 96.4702 122.002 96.0991 121.676 95.8114C121.349 95.5238 120.923 95.38 120.397 95.38C119.598 95.38 118.975 95.728 118.528 96.424C118.084 97.12 117.86 98.0877 117.856 99.3271H117.936C118.125 99.0181 118.355 98.7553 118.629 98.5387C118.906 98.3185 119.215 98.1499 119.556 98.0327C119.9 97.9119 120.262 97.8516 120.642 97.8516C121.274 97.8516 121.846 98.006 122.357 98.315C122.872 98.6204 123.283 99.043 123.588 99.5827C123.893 100.123 124.046 100.74 124.046 101.436C124.046 102.132 123.888 102.763 123.572 103.327C123.259 103.892 122.819 104.339 122.251 104.67C121.683 104.996 121.019 105.156 120.259 105.149ZM120.253 103.764C120.672 103.764 121.047 103.661 121.377 103.455C121.708 103.249 121.969 102.972 122.16 102.624C122.352 102.276 122.448 101.887 122.448 101.458C122.448 101.039 122.354 100.657 122.166 100.312C121.981 99.968 121.725 99.6946 121.399 99.4922C121.076 99.2898 120.706 99.1886 120.291 99.1886C119.975 99.1886 119.682 99.2489 119.412 99.3697C119.145 99.4904 118.911 99.6573 118.709 99.8704C118.506 100.083 118.346 100.328 118.229 100.605C118.116 100.879 118.059 101.168 118.059 101.474C118.059 101.882 118.153 102.26 118.341 102.608C118.533 102.956 118.794 103.237 119.124 103.45C119.458 103.659 119.834 103.764 120.253 103.764ZM129.983 105.181C129.142 105.178 128.422 104.956 127.826 104.515C127.229 104.075 126.773 103.434 126.457 102.592C126.141 101.751 125.983 100.737 125.983 99.5508C125.983 98.3683 126.141 97.358 126.457 96.5199C126.777 95.6818 127.235 95.0426 127.831 94.6023C128.431 94.1619 129.149 93.9418 129.983 93.9418C130.818 93.9418 131.533 94.1637 132.13 94.6076C132.726 95.0479 133.183 95.6871 133.499 96.5252C133.818 97.3597 133.978 98.3683 133.978 99.5508C133.978 100.74 133.82 101.756 133.504 102.598C133.188 103.436 132.732 104.077 132.135 104.521C131.539 104.961 130.821 105.181 129.983 105.181ZM129.983 103.759C130.722 103.759 131.299 103.398 131.714 102.678C132.133 101.957 132.343 100.914 132.343 99.5508C132.343 98.6452 132.247 97.88 132.055 97.255C131.867 96.6264 131.595 96.1506 131.24 95.8274C130.889 95.5007 130.47 95.3374 129.983 95.3374C129.248 95.3374 128.671 95.6996 128.252 96.424C127.833 97.1484 127.622 98.1907 127.618 99.5508C127.618 100.46 127.712 101.229 127.9 101.857C128.092 102.482 128.364 102.956 128.715 103.279C129.067 103.599 129.49 103.759 129.983 103.759Z" fill="black"/>
<rect x="54.9277" y="120" width="90" height="30" rx="3" fill="#EDEDED"/>
<path d="M66.5918 133.833L69.9251 130.5L73.2585 133.833" stroke="black" stroke-linecap="round" stroke-linejoin="round"/>
<line x1="69.9277" y1="131.333" x2="69.9277" y2="139" stroke="black" stroke-linecap="round" stroke-linejoin="round"/>
<path d="M107.866 129.091V140H106.215V130.742H106.151L103.541 132.447V130.87L106.263 129.091H107.866ZM113.196 140.101C112.905 140.101 112.655 139.998 112.445 139.792C112.236 139.583 112.131 139.331 112.131 139.036C112.131 138.745 112.236 138.496 112.445 138.29C112.655 138.081 112.905 137.976 113.196 137.976C113.488 137.976 113.738 138.081 113.947 138.29C114.157 138.496 114.262 138.745 114.262 139.036C114.262 139.231 114.212 139.411 114.113 139.574C114.017 139.734 113.889 139.862 113.729 139.957C113.569 140.053 113.392 140.101 113.196 140.101ZM117.254 140L122.017 130.582V130.502H116.509V129.091H123.721V130.55L118.975 140H117.254ZM131.656 129.091V140H130.005V130.742H129.941L127.331 132.447V130.87L130.052 129.091H131.656Z" fill="black"/>
<rect x="41.4277" y="36.5" width="117" height="127" rx="8.5" stroke="url(#paint0_linear_4644_117775)" stroke-width="3"/>
<defs>
<linearGradient id="paint0_linear_4644_117775" x1="157" y1="38" x2="41.6002" y2="163.092" gradientUnits="userSpaceOnUse">
<stop offset="0.651042" stop-color="#F1D54A"/>
<stop offset="1" stop-color="#EC5445"/>
</linearGradient>
</defs>
</svg>
