<svg width="200" height="200" viewBox="0 0 200 200" fill="none" xmlns="http://www.w3.org/2000/svg">
<g clip-path="url(#clip0_4644_117772)">
<path opacity="0.2" d="M200 100C200 155.228 155.228 200 100 200C44.7715 200 0 155.228 0 100C0 44.7715 44.7715 0 100 0C155.228 0 200 44.7715 200 100ZM4 100C4 153.019 46.9807 196 100 196C153.019 196 196 153.019 196 100C196 46.9807 153.019 4 100 4C46.9807 4 4 46.9807 4 100Z" fill="white"/>
<path fill-rule="evenodd" clip-rule="evenodd" d="M107.346 1.46885C107.396 0.807964 106.9 0.231326 106.239 0.18976C104.55 0.0836362 102.859 0.0203915 101.167 8.70404e-05C100.504 -0.00786567 99.9668 0.530145 99.9668 1.19289V2.79289C99.9668 3.45563 100.504 3.99212 101.167 4.00023C102.768 4.01985 104.36 4.07867 105.941 4.17577C106.602 4.21636 107.177 3.72165 107.227 3.06126L107.346 1.46885Z" fill="#F1D54A"/>
<path fill-rule="evenodd" clip-rule="evenodd" d="M122.896 3.89063C123.05 3.24598 122.652 2.59797 122.006 2.4519C118.282 1.61054 114.514 0.983091 110.718 0.572634C110.059 0.501375 109.473 0.985568 109.41 1.64527L109.258 3.22991C109.194 3.89017 109.679 4.47585 110.338 4.5467C113.985 4.93847 117.57 5.53444 121.083 6.32297C121.729 6.46804 122.376 6.07092 122.53 5.42666L122.896 3.89063Z" fill="#F1D54A"/>
<path fill-rule="evenodd" clip-rule="evenodd" d="M129.895 5.83477C130.096 5.20317 129.747 4.52768 129.113 4.33452C128.205 4.05788 127.293 3.79418 126.378 3.5435C125.739 3.36846 125.083 3.75337 124.916 4.39463L124.518 5.91935C124.35 6.56092 124.735 7.21593 125.375 7.391C126.224 7.62359 127.069 7.86757 127.909 8.12275C128.543 8.31533 129.218 7.96681 129.418 7.33532L129.895 5.83477Z" fill="#F1D54A"/>
<path fill-rule="evenodd" clip-rule="evenodd" d="M135.127 10.6363C135.744 10.8792 136.444 10.5854 136.695 9.97166L137.29 8.51406C137.54 7.90043 137.246 7.19931 136.629 6.95633C135.545 6.52926 134.454 6.12116 133.356 5.73222C132.732 5.51092 132.05 5.84686 131.836 6.47418L131.328 7.96383C131.114 8.59118 131.45 9.27233 132.075 9.49395C133.1 9.85789 134.118 10.2388 135.127 10.6363Z" fill="#F1D54A"/>
<path fill-rule="evenodd" clip-rule="evenodd" d="M144.792 15.0786C145.378 15.3887 146.107 15.1743 146.424 14.5918L147.179 13.2032C147.496 12.621 147.281 11.8917 146.695 11.582C144.689 10.522 142.648 9.5306 140.575 8.60943C139.97 8.3403 139.264 8.62226 139.002 9.23109L138.379 10.6789C138.117 11.2875 138.399 11.9924 139.004 12.2621C140.969 13.1377 142.899 14.0774 144.792 15.0786Z" fill="#F1D54A"/>
<path fill-rule="evenodd" clip-rule="evenodd" d="M157.325 23.0059C157.856 23.4025 158.609 23.3029 159.012 22.7762L159.981 21.5098C160.383 20.9833 160.283 20.2296 159.752 19.8334C156.815 17.6426 153.759 15.6149 150.599 13.7595C150.028 13.4239 149.294 13.6246 148.966 14.2001L148.18 15.5762C147.851 16.1513 148.051 16.8831 148.622 17.2193C151.632 18.9925 154.537 20.9253 157.325 23.0059Z" fill="#F1D54A"/>
<path fill-rule="evenodd" clip-rule="evenodd" d="M162.929 27.5222C163.429 27.9572 164.188 27.9142 164.629 27.4193L165.692 26.2257C166.133 25.7309 166.09 24.9718 165.59 24.5368C164.832 23.8783 164.065 23.2311 163.289 22.5956C162.776 22.176 162.02 22.2612 161.607 22.7792L160.61 24.0274C160.197 24.5451 160.282 25.2992 160.794 25.7192C161.515 26.31 162.226 26.9111 162.929 27.5222Z" fill="#F1D54A"/>
<path fill-rule="evenodd" clip-rule="evenodd" d="M168.148 32.411C168.615 32.8817 169.374 32.8951 169.85 32.4345L171 31.3223C171.477 30.8617 171.49 30.1015 171.024 29.6306C170.318 28.9174 169.601 28.215 168.874 27.5235C168.393 27.0668 167.634 27.0956 167.183 27.5813L166.094 28.7539C165.643 29.2395 165.672 29.9981 166.152 30.455C166.827 31.0974 167.492 31.7495 168.148 32.411Z" fill="#F1D54A"/>
<path fill-rule="evenodd" clip-rule="evenodd" d="M175.742 41.0462C176.149 41.5687 176.901 41.6724 177.429 41.2723L178.7 40.3084C179.229 39.908 179.333 39.1548 178.926 38.6315C177.359 36.6144 175.714 34.6581 173.997 32.7669C173.551 32.2762 172.791 32.2493 172.306 32.7007L171.135 33.79C170.65 34.2414 170.623 35.0004 171.069 35.4912C172.695 37.2824 174.254 39.1354 175.742 41.0462Z" fill="#F1D54A"/>
<path fill-rule="evenodd" clip-rule="evenodd" d="M181.694 49.6043C182.042 50.1677 182.778 50.3522 183.346 50.0117L184.707 49.196C185.276 48.8552 185.461 48.1178 185.113 47.5535C183.987 45.7243 182.802 43.9319 181.56 42.1791C181.176 41.6384 180.425 41.52 179.889 41.9096L178.601 42.8457C178.065 43.2355 177.947 43.9861 178.33 44.5271C179.503 46.1815 180.626 47.8747 181.694 49.6043Z" fill="#F1D54A"/>
<path fill-rule="evenodd" clip-rule="evenodd" d="M186.709 58.8137C186.994 59.412 187.705 59.6758 188.307 59.3992L189.741 58.7406C190.343 58.4638 190.607 57.751 190.323 57.1522C189.403 55.211 188.421 53.3001 187.377 51.4223C187.055 50.843 186.322 50.6434 185.746 50.9722L184.372 51.7574C183.796 52.0865 183.597 52.8198 183.92 53.3994C184.905 55.1705 185.835 56.976 186.709 58.8137Z" fill="#F1D54A"/>
<path fill-rule="evenodd" clip-rule="evenodd" d="M189.445 65.1435C189.686 65.761 190.377 66.0755 190.997 65.8427L192.471 65.2898C193.092 65.057 193.407 64.365 193.167 63.7473C192.831 62.8839 192.483 62.0253 192.123 61.1716C191.866 60.5608 191.158 60.283 190.551 60.5476L189.107 61.1764C188.499 61.4411 188.221 62.1483 188.479 62.7593C188.811 63.5487 189.133 64.3435 189.445 65.1435Z" fill="#F1D54A"/>
<path fill-rule="evenodd" clip-rule="evenodd" d="M191.705 71.6243C191.9 72.2578 192.567 72.6212 193.203 72.4333L194.713 71.987C195.349 71.7992 195.712 71.1314 195.517 70.4982C195.243 69.613 194.958 68.7317 194.66 67.8545C194.447 67.2269 193.761 66.8992 193.136 67.1197L191.652 67.6434C191.027 67.8639 190.7 68.549 190.912 69.1768C191.187 69.9878 191.451 70.8037 191.705 71.6243Z" fill="#F1D54A"/>
<path fill-rule="evenodd" clip-rule="evenodd" d="M194.46 82.965C194.577 83.618 195.195 84.0602 195.849 83.9507L197.411 83.6894C198.065 83.5801 198.507 82.9614 198.39 82.3091C197.935 79.7819 197.384 77.2731 196.737 74.7884C196.57 74.1471 195.909 73.7706 195.27 73.9453L193.749 74.361C193.11 74.5357 192.734 75.1949 192.901 75.8362C193.508 78.1789 194.029 80.5564 194.46 82.965Z" fill="#F1D54A"/>
<path fill-rule="evenodd" clip-rule="evenodd" d="M195.735 93.2778C195.78 93.9394 196.347 94.4456 197.009 94.4075L198.603 94.3158C199.264 94.2777 199.771 93.7104 199.725 93.0493C199.578 90.9385 199.364 88.833 199.083 86.7358C198.995 86.0789 198.385 85.625 197.73 85.7207L196.157 85.9503C195.502 86.0459 195.049 86.6541 195.136 87.3106C195.396 89.2814 195.596 91.2711 195.735 93.2778Z" fill="#F1D54A"/>
<path fill-rule="evenodd" clip-rule="evenodd" d="M197.04 104.97C196.378 104.936 195.87 104.372 195.895 103.71C195.942 102.477 195.966 101.238 195.966 99.9927C195.966 99.2306 195.957 98.4705 195.94 97.7126C195.924 97.0503 196.441 96.4944 197.103 96.4704L198.701 96.4124C199.364 96.3884 199.921 96.9058 199.937 97.5684C199.988 99.6836 199.972 101.8 199.889 103.914C199.863 104.576 199.298 105.085 198.637 105.051L197.04 104.97Z" fill="#F1D54A"/>
<path fill-rule="evenodd" clip-rule="evenodd" d="M196.919 106.989C196.258 106.941 195.684 107.439 195.628 108.1C195.501 109.625 195.338 111.141 195.139 112.645C195.053 113.301 195.506 113.909 196.162 114.005L197.734 114.234C198.39 114.329 199 113.875 199.087 113.218C199.302 111.612 199.477 110.001 199.613 108.386C199.669 107.726 199.171 107.151 198.51 107.104L196.919 106.989Z" fill="#F1D54A"/>
<path fill-rule="evenodd" clip-rule="evenodd" d="M195.808 116.276C195.154 116.165 194.535 116.605 194.416 117.258C194.263 118.104 194.098 118.945 193.923 119.783C193.787 120.431 194.193 121.072 194.839 121.216L196.382 121.561C197.028 121.706 197.671 121.299 197.808 120.651C197.999 119.744 198.178 118.835 198.344 117.924C198.463 117.272 198.022 116.652 197.369 116.541L195.808 116.276Z" fill="#F1D54A"/>
<path fill-rule="evenodd" clip-rule="evenodd" d="M194.414 123.056C193.77 122.899 193.121 123.294 192.956 123.936C192.348 126.304 191.652 128.636 190.872 130.93C190.659 131.557 190.985 132.243 191.609 132.464L193.093 132.99C193.718 133.211 194.404 132.885 194.618 132.257C195.446 129.827 196.181 127.366 196.82 124.879C196.985 124.237 196.59 123.587 195.946 123.43L194.414 123.056Z" fill="#F1D54A"/>
<path fill-rule="evenodd" clip-rule="evenodd" d="M190.956 134.251C190.336 134.017 189.645 134.331 189.403 134.948C188.642 136.895 187.819 138.811 186.936 140.694C186.655 141.294 186.904 142.012 187.501 142.301L188.921 142.987C189.517 143.275 190.236 143.026 190.517 142.426C191.452 140.429 192.321 138.403 193.123 136.349C193.364 135.731 193.05 135.039 192.429 134.806L190.956 134.251Z" fill="#F1D54A"/>
<path fill-rule="evenodd" clip-rule="evenodd" d="M186.622 144.067C186.031 143.767 185.31 144.002 185.002 144.588C184.03 146.437 183 148.25 181.914 150.026C181.568 150.591 181.736 151.332 182.298 151.685L183.641 152.528C184.203 152.881 184.944 152.712 185.29 152.146C186.439 150.265 187.527 148.347 188.55 146.394C188.857 145.807 188.621 145.084 188.03 144.783L186.622 144.067Z" fill="#F1D54A"/>
<path fill-rule="evenodd" clip-rule="evenodd" d="M181.34 153.172C180.785 152.81 180.043 152.966 179.673 153.515C178.651 155.035 177.586 156.523 176.481 157.98C176.08 158.508 176.173 159.262 176.697 159.669L177.956 160.648C178.479 161.055 179.233 160.961 179.634 160.433C180.806 158.888 181.932 157.309 183.013 155.699C183.382 155.149 183.225 154.405 182.671 154.042L181.34 153.172Z" fill="#F1D54A"/>
<path fill-rule="evenodd" clip-rule="evenodd" d="M175.445 161.239C174.931 160.822 174.176 160.901 173.752 161.41C173.203 162.069 172.645 162.72 172.079 163.364C171.641 163.862 171.68 164.62 172.173 165.064L173.36 166.134C173.853 166.578 174.612 166.539 175.05 166.041C175.662 165.346 176.264 164.642 176.856 163.929C177.28 163.42 177.201 162.664 176.686 162.246L175.445 161.239Z" fill="#F1D54A"/>
<path fill-rule="evenodd" clip-rule="evenodd" d="M170.722 166.636C170.24 166.181 169.481 166.205 169.021 166.681C167.331 168.431 165.574 170.117 163.757 171.734C163.262 172.175 163.207 172.932 163.641 173.432L164.689 174.64C165.123 175.141 165.881 175.196 166.377 174.756C168.296 173.05 170.15 171.272 171.932 169.424C172.393 168.947 172.369 168.187 171.887 167.733L170.722 166.636Z" fill="#F1D54A"/>
<path fill-rule="evenodd" clip-rule="evenodd" d="M162.216 174.648C161.791 174.139 161.035 174.071 160.52 174.489C158.942 175.774 157.321 177.01 155.662 178.194C155.122 178.579 154.987 179.325 155.365 179.87L156.272 181.178C156.65 181.723 157.398 181.859 157.938 181.474C159.694 180.225 161.409 178.919 163.081 177.559C163.595 177.141 163.663 176.383 163.239 175.874L162.216 174.648Z" fill="#F1D54A"/>
<path fill-rule="evenodd" clip-rule="evenodd" d="M153.705 181C153.339 180.447 152.594 180.297 152.037 180.657C150.329 181.762 148.584 182.814 146.803 183.811C146.225 184.135 146.009 184.862 146.325 185.444L147.08 186.836C147.396 187.418 148.125 187.635 148.703 187.312C150.585 186.261 152.433 185.151 154.243 183.981C154.799 183.621 154.95 182.876 154.583 182.323L153.705 181Z" fill="#F1D54A"/>
<path fill-rule="evenodd" clip-rule="evenodd" d="M144.535 186.396C144.231 185.806 143.507 185.576 142.914 185.873C141.036 186.815 139.122 187.696 137.176 188.515C136.565 188.772 136.269 189.471 136.518 190.085L137.11 191.545C137.359 192.159 138.059 192.455 138.671 192.199C140.724 191.337 142.748 190.406 144.74 189.409C145.332 189.113 145.563 188.388 145.259 187.799L144.535 186.396Z" fill="#F1D54A"/>
<path fill-rule="evenodd" clip-rule="evenodd" d="M134.673 190.813C134.437 190.194 133.743 189.885 133.121 190.114C132.285 190.421 131.444 190.718 130.597 191.002C129.969 191.214 129.622 191.889 129.826 192.52L130.309 194.018C130.513 194.649 131.189 194.996 131.818 194.785C132.73 194.478 133.637 194.159 134.54 193.826C135.162 193.597 135.472 192.903 135.235 192.283L134.673 190.813Z" fill="#F0BB49"/>
<path fill-rule="evenodd" clip-rule="evenodd" d="M127.864 193.129C127.674 192.495 127.006 192.135 126.369 192.317C124.041 192.981 121.677 193.56 119.28 194.049C118.63 194.182 118.203 194.811 118.328 195.462L118.627 197.015C118.752 197.666 119.381 198.092 120.031 197.959C122.546 197.444 125.041 196.832 127.509 196.125C128.146 195.943 128.507 195.273 128.316 194.638L127.864 193.129Z" fill="#EFA148"/>
<path fill-rule="evenodd" clip-rule="evenodd" d="M116.442 195.8C116.33 195.148 115.71 194.71 115.056 194.813C112.988 195.14 110.897 195.401 108.787 195.593C108.127 195.653 107.633 196.231 107.685 196.892L107.812 198.481C107.865 199.141 108.443 199.635 109.103 199.574C111.321 199.371 113.531 199.093 115.73 198.742C116.385 198.638 116.823 198.016 116.711 197.363L116.442 195.8Z" fill="#EE8847"/>
<path fill-rule="evenodd" clip-rule="evenodd" d="M105.955 197.01C105.915 196.349 105.346 195.847 104.685 195.879C103.121 195.955 101.548 195.993 99.9662 195.993C99.4321 195.993 98.8991 195.988 98.3671 195.98C97.7047 195.969 97.1524 196.489 97.1331 197.152L97.0865 198.751C97.0671 199.413 97.5885 199.967 98.2512 199.978C100.478 200.016 102.705 199.98 104.93 199.87C105.592 199.837 106.095 199.267 106.054 198.605L105.955 197.01Z" fill="#ED6E46"/>
<path fill-rule="evenodd" clip-rule="evenodd" d="M79.613 193.831C78.9656 193.691 78.3224 194.094 78.174 194.739L77.8199 196.279C77.6713 196.925 78.0743 197.569 78.722 197.71C83.7621 198.806 88.8794 199.51 94.0282 199.816C94.6898 199.856 95.2519 199.344 95.2833 198.682L95.359 197.086C95.3904 196.424 94.8786 195.862 94.2166 195.823C89.2371 195.529 84.3598 194.856 79.613 193.831Z" fill="#FF1C1C"/>
<g clip-path="url(#clip1_4644_117772)">
<path fill-rule="evenodd" clip-rule="evenodd" d="M95.8731 65.0522C103.919 67.0549 112.053 62.151 114.054 54.1202C116.051 46.0845 111.155 37.9261 103.104 35.9478C95.0784 33.945 86.9494 38.8489 84.9479 46.8798C82.9463 54.9106 87.8423 63.0445 95.8731 65.0522ZM103.192 44.7931C105.276 45.5 106.795 46.5457 106.526 48.5486C106.32 50.0066 105.526 50.7185 104.427 50.9688C105.927 51.7396 106.677 52.908 105.991 54.9551C105.138 57.5226 103.035 57.7533 100.222 57.2526L99.5745 59.987L97.9275 59.5893L98.5745 56.8991C98.1579 56.796 97.7216 56.688 97.2608 56.5653L96.6138 59.2752L94.9667 58.8775L95.6138 56.1431C95.3873 56.0775 95.1518 56.0209 94.9128 55.9635C94.7585 55.9264 94.6028 55.889 94.4471 55.8486L92.3 55.3478L93.0794 53.448C93.0794 53.448 94.3098 53.7621 94.2902 53.7425C94.7461 53.8456 94.9569 53.5511 95.0402 53.3449L96.0402 49.0248C96.0721 49.0346 96.0978 49.0395 96.1236 49.0444C96.1493 49.0493 96.175 49.0542 96.2069 49.0641C96.1657 49.0355 96.1265 49.0254 96.092 49.0165C96.0732 49.0117 96.0558 49.0072 96.0402 49.0002L96.7706 45.9124C96.7951 45.5785 96.6677 45.1416 96.001 44.9747C96.0451 44.9502 94.8147 44.6802 94.8147 44.6802L95.2314 42.9276L97.501 43.4725C97.6775 43.5142 97.8552 43.5511 98.0329 43.5879C98.2106 43.6247 98.3883 43.6615 98.5647 43.7032L99.2118 40.9934L100.878 41.391L100.251 44.042C100.687 44.1303 101.128 44.2334 101.565 44.3365L102.192 41.6856L103.839 42.0832L103.192 44.7931ZM98.065 54.6503C99.3893 54.9905 102.376 55.7575 102.82 53.8652C103.267 51.9478 100.467 51.3441 99.0623 51.0412C98.8954 51.0052 98.7482 50.9735 98.6285 50.9443L97.7755 54.5771C97.8593 54.5975 97.9566 54.6225 98.065 54.6503ZM99.2512 49.3376C100.356 49.6232 102.87 50.2733 103.276 48.5486C103.687 46.8176 101.34 46.3149 100.18 46.0663C100.04 46.0365 99.918 46.0102 99.8196 45.986L99.0255 49.2801C99.0916 49.2964 99.1673 49.3159 99.2512 49.3376Z" fill="white"/>
</g>
<path d="M42.8732 111.5L52.7709 91.9091V91.75H41.2823V88.2273H57.1346V91.8295L47.2482 111.5H42.8732ZM68.7469 111.818C67.6333 111.811 66.5462 111.617 65.4855 111.239C64.4249 110.852 63.4704 110.227 62.6219 109.364C61.7734 108.492 61.0992 107.337 60.5992 105.898C60.0992 104.451 59.853 102.659 59.8605 100.523C59.8605 98.5303 60.0727 96.7538 60.4969 95.1932C60.9212 93.6326 61.531 92.3144 62.3265 91.2386C63.1219 90.1553 64.0802 89.3295 65.2015 88.7614C66.3302 88.1932 67.5916 87.9091 68.9855 87.9091C70.4477 87.9091 71.7431 88.197 72.8719 88.7727C74.0083 89.3485 74.9249 90.1364 75.6219 91.1364C76.3189 92.1288 76.7507 93.25 76.9174 94.5H72.7696C72.5575 93.6061 72.1219 92.8939 71.4628 92.3636C70.8113 91.8258 69.9855 91.5568 68.9855 91.5568C67.3719 91.5568 66.1295 92.2576 65.2583 93.6591C64.3946 95.0606 63.959 96.9848 63.9515 99.4318H64.1105C64.4818 98.7652 64.9628 98.1932 65.5537 97.7159C66.1446 97.2386 66.8113 96.8712 67.5537 96.6136C68.3037 96.3485 69.0954 96.2159 69.9287 96.2159C71.2924 96.2159 72.5159 96.5417 73.5992 97.1932C74.6901 97.8447 75.5537 98.7424 76.1901 99.8864C76.8265 101.023 77.1409 102.326 77.1333 103.795C77.1409 105.326 76.7924 106.701 76.0878 107.92C75.3833 109.133 74.4022 110.087 73.1446 110.784C71.8871 111.481 70.4212 111.826 68.7469 111.818ZM68.7242 108.409C69.5499 108.409 70.2886 108.208 70.9401 107.807C71.5916 107.405 72.1068 106.864 72.4855 106.182C72.8643 105.5 73.0499 104.735 73.0424 103.886C73.0499 103.053 72.8681 102.299 72.4969 101.625C72.1333 100.951 71.6295 100.417 70.9855 100.023C70.3416 99.6288 69.6068 99.4318 68.781 99.4318C68.1674 99.4318 67.5954 99.5492 67.0651 99.7841C66.5348 100.019 66.0727 100.345 65.6787 100.761C65.2848 101.17 64.9742 101.648 64.7469 102.193C64.5272 102.731 64.4136 103.307 64.406 103.92C64.4136 104.731 64.603 105.477 64.9742 106.159C65.3454 106.841 65.8568 107.386 66.5083 107.795C67.1598 108.205 67.8984 108.409 68.7242 108.409ZM89.2485 111.818C87.6121 111.818 86.1575 111.538 84.8848 110.977C83.6197 110.417 82.6197 109.636 81.8848 108.636C81.15 107.636 80.7598 106.481 80.7144 105.17H84.9871C85.025 105.799 85.2333 106.348 85.6121 106.818C85.9909 107.28 86.4947 107.64 87.1235 107.898C87.7522 108.155 88.4568 108.284 89.2371 108.284C90.0704 108.284 90.8091 108.14 91.453 107.852C92.0969 107.557 92.6007 107.148 92.9644 106.625C93.328 106.102 93.506 105.5 93.4985 104.818C93.506 104.114 93.3242 103.492 92.953 102.955C92.5818 102.417 92.0439 101.996 91.3394 101.693C90.6424 101.39 89.8015 101.239 88.8166 101.239H86.7598V97.9886H88.8166C89.6272 97.9886 90.3356 97.8485 90.9416 97.5682C91.5553 97.2879 92.0363 96.8939 92.3848 96.3864C92.7333 95.8712 92.9038 95.2765 92.8962 94.6023C92.9038 93.9432 92.756 93.3712 92.453 92.8864C92.1575 92.3939 91.7371 92.0114 91.1916 91.7386C90.6538 91.4659 90.0212 91.3295 89.2939 91.3295C88.5818 91.3295 87.9227 91.4583 87.3166 91.7159C86.7106 91.9735 86.2219 92.3409 85.8507 92.8182C85.4795 93.2879 85.2825 93.8485 85.2598 94.5H81.203C81.2333 93.197 81.6083 92.053 82.328 91.0682C83.0553 90.0758 84.025 89.303 85.2371 88.75C86.4492 88.1894 87.8091 87.9091 89.3166 87.9091C90.8697 87.9091 92.2182 88.2008 93.3621 88.7841C94.5136 89.3598 95.4038 90.1364 96.0325 91.1136C96.6613 92.0909 96.9757 93.1705 96.9757 94.3523C96.9833 95.6629 96.5969 96.7614 95.8166 97.6477C95.0439 98.5341 94.0288 99.1136 92.7712 99.3864V99.5682C94.4075 99.7955 95.6613 100.402 96.5325 101.386C97.4113 102.364 97.8469 103.58 97.8394 105.034C97.8394 106.337 97.4682 107.504 96.7257 108.534C95.9909 109.557 94.9757 110.36 93.6803 110.943C92.3924 111.527 90.9151 111.818 89.2485 111.818ZM105.849 108.318L105.702 109.568C105.596 110.523 105.406 111.492 105.134 112.477C104.868 113.47 104.588 114.383 104.293 115.216C103.997 116.049 103.759 116.705 103.577 117.182H100.804C100.91 116.72 101.054 116.091 101.236 115.295C101.425 114.5 101.607 113.606 101.781 112.614C101.955 111.621 102.073 110.614 102.134 109.591L102.213 108.318H105.849ZM116.925 88.2273V111.5H112.709V92.3295H112.573L107.129 95.8068V91.9432L112.913 88.2273H116.925ZM131.029 111.818C129.339 111.818 127.839 111.534 126.529 110.966C125.226 110.398 124.203 109.621 123.46 108.636C122.726 107.644 122.362 106.519 122.37 105.261C122.362 104.284 122.574 103.386 123.006 102.568C123.438 101.75 124.021 101.068 124.756 100.523C125.498 99.9697 126.324 99.6174 127.233 99.4659V99.3068C126.036 99.0417 125.067 98.4318 124.324 97.4773C123.589 96.5152 123.226 95.4053 123.233 94.1477C123.226 92.9508 123.559 91.8826 124.233 90.9432C124.907 90.0038 125.832 89.2652 127.006 88.7273C128.18 88.1818 129.521 87.9091 131.029 87.9091C132.521 87.9091 133.851 88.1818 135.017 88.7273C136.192 89.2652 137.116 90.0038 137.79 90.9432C138.472 91.8826 138.813 92.9508 138.813 94.1477C138.813 95.4053 138.438 96.5152 137.688 97.4773C136.945 98.4318 135.987 99.0417 134.813 99.3068V99.4659C135.722 99.6174 136.54 99.9697 137.267 100.523C138.002 101.068 138.585 101.75 139.017 102.568C139.457 103.386 139.676 104.284 139.676 105.261C139.676 106.519 139.305 107.644 138.563 108.636C137.82 109.621 136.798 110.398 135.495 110.966C134.199 111.534 132.71 111.818 131.029 111.818ZM131.029 108.568C131.9 108.568 132.657 108.42 133.301 108.125C133.945 107.822 134.445 107.398 134.801 106.852C135.157 106.307 135.339 105.678 135.347 104.966C135.339 104.223 135.146 103.568 134.767 103C134.396 102.424 133.885 101.973 133.233 101.648C132.589 101.322 131.854 101.159 131.029 101.159C130.195 101.159 129.453 101.322 128.801 101.648C128.15 101.973 127.635 102.424 127.256 103C126.885 103.568 126.703 104.223 126.71 104.966C126.703 105.678 126.877 106.307 127.233 106.852C127.589 107.39 128.089 107.811 128.733 108.114C129.385 108.417 130.15 108.568 131.029 108.568ZM131.029 97.9659C131.741 97.9659 132.37 97.822 132.915 97.5341C133.468 97.2462 133.904 96.8447 134.222 96.3295C134.54 95.8144 134.703 95.2197 134.71 94.5455C134.703 93.8788 134.544 93.2955 134.233 92.7955C133.923 92.2879 133.491 91.8977 132.938 91.625C132.385 91.3447 131.748 91.2045 131.029 91.2045C130.294 91.2045 129.646 91.3447 129.085 91.625C128.532 91.8977 128.101 92.2879 127.79 92.7955C127.487 93.2955 127.339 93.8788 127.347 94.5455C127.339 95.2197 127.491 95.8144 127.801 96.3295C128.12 96.8371 128.555 97.2386 129.108 97.5341C129.669 97.822 130.309 97.9659 131.029 97.9659ZM144.186 111.5L154.084 91.9091V91.75H142.596V88.2273H158.448V91.8295L148.561 111.5H144.186Z" fill="white"/>
<path opacity="0.5" d="M57.4693 137.5V124.409H62.7108C63.6739 124.409 64.4771 124.552 65.1206 124.837C65.7641 125.123 66.2477 125.519 66.5716 126.026C66.8955 126.529 67.0574 127.109 67.0574 127.765C67.0574 128.276 66.9551 128.726 66.7506 129.114C66.546 129.497 66.2648 129.812 65.9068 130.06C65.5531 130.303 65.1483 130.475 64.6923 130.577V130.705C65.1909 130.727 65.6575 130.867 66.0922 131.127C66.5311 131.387 66.8869 131.751 67.1597 132.22C67.4324 132.685 67.5687 133.239 67.5687 133.882C67.5687 134.577 67.3962 135.197 67.051 135.742C66.7101 136.283 66.2051 136.712 65.5361 137.027C64.867 137.342 64.0425 137.5 63.0624 137.5H57.4693ZM60.2371 135.237H62.4935C63.2648 135.237 63.8273 135.09 64.181 134.796C64.5347 134.498 64.7115 134.102 64.7115 133.607C64.7115 133.245 64.6241 132.925 64.4494 132.648C64.2747 132.371 64.0254 132.154 63.7016 131.996C63.382 131.839 63.0006 131.76 62.5574 131.76H60.2371V135.237ZM60.2371 129.887H62.2889C62.6682 129.887 63.0048 129.821 63.2989 129.689C63.5972 129.553 63.8315 129.361 64.002 129.114C64.1767 128.866 64.2641 128.57 64.2641 128.225C64.2641 127.752 64.0957 127.371 63.7591 127.081C63.4267 126.791 62.9537 126.646 62.3401 126.646H60.2371V129.887ZM71.9636 124.409V137.5H69.2406V124.409H71.9636ZM78.5029 137.692C77.51 137.692 76.6514 137.481 75.927 137.059C75.2068 136.633 74.6507 136.04 74.2586 135.282C73.8666 134.519 73.6706 133.635 73.6706 132.629C73.6706 131.615 73.8666 130.729 74.2586 129.97C74.6507 129.207 75.2068 128.615 75.927 128.193C76.6514 127.767 77.51 127.554 78.5029 127.554C79.4958 127.554 80.3524 127.767 81.0725 128.193C81.797 128.615 82.3552 129.207 82.7473 129.97C83.1393 130.729 83.3353 131.615 83.3353 132.629C83.3353 133.635 83.1393 134.519 82.7473 135.282C82.3552 136.04 81.797 136.633 81.0725 137.059C80.3524 137.481 79.4958 137.692 78.5029 137.692ZM78.5157 135.582C78.9674 135.582 79.3446 135.455 79.6471 135.199C79.9497 134.939 80.1777 134.585 80.3311 134.138C80.4887 133.69 80.5676 133.181 80.5676 132.61C80.5676 132.039 80.4887 131.53 80.3311 131.082C80.1777 130.635 79.9497 130.281 79.6471 130.021C79.3446 129.761 78.9674 129.631 78.5157 129.631C78.0598 129.631 77.6762 129.761 77.3652 130.021C77.0583 130.281 76.8261 130.635 76.6684 131.082C76.515 131.53 76.4383 132.039 76.4383 132.61C76.4383 133.181 76.515 133.69 76.6684 134.138C76.8261 134.585 77.0583 134.939 77.3652 135.199C77.6762 135.455 78.0598 135.582 78.5157 135.582ZM89.464 137.692C88.4583 137.692 87.5933 137.479 86.8688 137.053C86.1487 136.622 85.5947 136.026 85.2069 135.263C84.8234 134.5 84.6316 133.622 84.6316 132.629C84.6316 131.624 84.8255 130.741 85.2133 129.983C85.6053 129.22 86.1615 128.626 86.8816 128.2C87.6018 127.769 88.4583 127.554 89.4512 127.554C90.3078 127.554 91.0578 127.71 91.7012 128.021C92.3447 128.332 92.8539 128.768 93.2289 129.331C93.6039 129.893 93.8106 130.554 93.849 131.312H91.2794C91.2069 130.822 91.0151 130.428 90.7041 130.13C90.3972 129.827 89.9945 129.676 89.496 129.676C89.0741 129.676 88.7055 129.791 88.3901 130.021C88.0791 130.247 87.8362 130.577 87.6615 131.012C87.4867 131.447 87.3994 131.973 87.3994 132.591C87.3994 133.217 87.4846 133.75 87.6551 134.189C87.8298 134.628 88.0748 134.962 88.3901 135.192C88.7055 135.423 89.0741 135.538 89.496 135.538C89.807 135.538 90.0862 135.474 90.3333 135.346C90.5847 135.218 90.7914 135.033 90.9534 134.79C91.1195 134.543 91.2282 134.246 91.2794 133.901H93.849C93.8063 134.651 93.6018 135.312 93.2353 135.883C92.8731 136.45 92.3724 136.893 91.7332 137.212C91.094 137.532 90.3376 137.692 89.464 137.692ZM97.9817 134.675L97.9881 131.408H98.3844L101.529 127.682H104.655L100.43 132.616H99.7843L97.9817 134.675ZM95.5144 137.5V124.409H98.2374V137.5H95.5144ZM101.651 137.5L98.7615 133.224L100.577 131.3L104.84 137.5H101.651ZM111.135 127.682V129.727H105.223V127.682H111.135ZM106.565 125.33H109.288V134.483C109.288 134.734 109.326 134.93 109.403 135.071C109.48 135.207 109.586 135.303 109.723 135.359C109.863 135.414 110.025 135.442 110.208 135.442C110.336 135.442 110.464 135.431 110.592 135.41C110.72 135.384 110.818 135.365 110.886 135.352L111.314 137.379C111.178 137.421 110.986 137.47 110.739 137.526C110.492 137.585 110.191 137.621 109.838 137.634C109.181 137.66 108.606 137.572 108.112 137.372C107.622 137.172 107.24 136.861 106.968 136.439C106.695 136.017 106.561 135.484 106.565 134.841V125.33ZM112.831 137.5V127.682H115.554V137.5H112.831ZM114.199 126.416C113.794 126.416 113.447 126.282 113.157 126.013C112.872 125.741 112.729 125.415 112.729 125.036C112.729 124.661 112.872 124.339 113.157 124.07C113.447 123.798 113.794 123.661 114.199 123.661C114.604 123.661 114.949 123.798 115.234 124.07C115.524 124.339 115.669 124.661 115.669 125.036C115.669 125.415 115.524 125.741 115.234 126.013C114.949 126.282 114.604 126.416 114.199 126.416ZM117.657 137.5V127.682H120.253V129.414H120.368C120.572 128.839 120.913 128.385 121.39 128.053C121.868 127.72 122.439 127.554 123.103 127.554C123.777 127.554 124.35 127.722 124.823 128.059C125.296 128.391 125.611 128.843 125.769 129.414H125.871C126.071 128.852 126.434 128.402 126.958 128.065C127.486 127.724 128.11 127.554 128.831 127.554C129.747 127.554 130.49 127.846 131.061 128.43C131.637 129.009 131.924 129.832 131.924 130.897V137.5H129.208V131.434C129.208 130.888 129.063 130.479 128.773 130.207C128.483 129.934 128.121 129.798 127.686 129.798C127.192 129.798 126.806 129.955 126.529 130.271C126.253 130.582 126.114 130.993 126.114 131.504V137.5H123.474V131.376C123.474 130.895 123.336 130.511 123.059 130.226C122.786 129.94 122.426 129.798 121.978 129.798C121.676 129.798 121.403 129.874 121.16 130.028C120.922 130.177 120.732 130.388 120.591 130.661C120.451 130.929 120.38 131.244 120.38 131.607V137.5H117.657ZM138.472 137.692C137.462 137.692 136.592 137.487 135.864 137.078C135.139 136.665 134.581 136.081 134.189 135.327C133.797 134.568 133.601 133.671 133.601 132.636C133.601 131.626 133.797 130.739 134.189 129.977C134.581 129.214 135.133 128.619 135.845 128.193C136.561 127.767 137.4 127.554 138.363 127.554C139.011 127.554 139.614 127.658 140.172 127.867C140.735 128.072 141.225 128.381 141.642 128.794C142.064 129.207 142.392 129.727 142.627 130.354C142.861 130.976 142.978 131.705 142.978 132.54V133.288H134.688V131.6H140.415C140.415 131.208 140.33 130.861 140.159 130.558C139.989 130.256 139.752 130.019 139.45 129.849C139.151 129.674 138.804 129.587 138.408 129.587C137.994 129.587 137.628 129.683 137.308 129.874C136.993 130.062 136.746 130.315 136.567 130.635C136.388 130.95 136.296 131.302 136.292 131.69V133.294C136.292 133.78 136.382 134.2 136.561 134.553C136.744 134.907 137.002 135.18 137.334 135.371C137.666 135.563 138.061 135.659 138.516 135.659C138.819 135.659 139.096 135.616 139.347 135.531C139.599 135.446 139.814 135.318 139.993 135.148C140.172 134.977 140.308 134.768 140.402 134.521L142.921 134.688C142.793 135.293 142.531 135.821 142.134 136.273C141.742 136.72 141.235 137.07 140.613 137.321C139.995 137.568 139.281 137.692 138.472 137.692Z" fill="white"/>
<circle opacity="0.5" cx="84" cy="163" r="1.5" fill="white"/>
<circle opacity="0.5" cx="92" cy="163" r="1.5" fill="white"/>
<circle opacity="0.5" cx="100" cy="163" r="1.5" fill="white"/>
<circle opacity="0.5" cx="108" cy="163" r="1.5" fill="white"/>
<circle opacity="0.5" cx="116" cy="163" r="1.5" fill="white"/>
</g>
<defs>
<clipPath id="clip0_4644_117772">
<rect width="200" height="200" fill="white"/>
</clipPath>
<clipPath id="clip1_4644_117772">
<rect width="30" height="30" fill="white" transform="translate(84.5 35.5)"/>
</clipPath>
</defs>
</svg>
