<svg width="12" height="12" viewBox="0 0 12 12" fill="none" xmlns="http://www.w3.org/2000/svg">
<path d="M5.10326 1.31699C5.47008 0.573741 6.52992 0.57374 6.89674 1.31699L7.82458 3.197C7.97024 3.49214 8.25181 3.69671 8.57752 3.74404L10.6522 4.04551C11.4725 4.1647 11.8 5.17267 11.2064 5.75121L9.70517 7.21459C9.46948 7.44433 9.36193 7.77533 9.41757 8.09972L9.77197 10.1661C9.91208 10.983 9.05465 11.6059 8.32102 11.2202L6.46534 10.2446C6.17402 10.0915 5.82598 10.0915 5.53466 10.2446L3.67898 11.2202C2.94535 11.6059 2.08792 10.983 2.22803 10.1661L2.58243 8.09972C2.63807 7.77533 2.53052 7.44433 2.29483 7.21459L0.793554 5.75121C0.200037 5.17267 0.527547 4.1647 1.34777 4.04551L3.42248 3.74404C3.74819 3.69671 4.02976 3.49214 4.17542 3.197L5.10326 1.31699Z" fill="#36B46B"/>
</svg>
