<svg width="30" height="31" viewBox="0 0 30 31" fill="none" xmlns="http://www.w3.org/2000/svg">
<path d="M22.7085 14.1856L22.6278 14.679L22.628 14.679L22.7085 14.1856ZM20.6527 13.8496L20.1727 13.9896L20.261 14.2922L20.572 14.343L20.6527 13.8496ZM23 14.5289L22.5 14.5278V14.5289H23ZM22.7123 16.7845L22.626 16.292L22.6259 16.2921L22.7123 16.7845ZM20.6537 17.1459L20.5673 16.6534L20.2601 16.7074L20.1734 17.007L20.6537 17.1459ZM20.1643 18.3313L19.726 18.0906L19.5741 18.3674L19.7586 18.6235L20.1643 18.3313ZM21.3811 20.0207L20.9754 20.3129L20.9755 20.3132L21.3811 20.0207ZM21.3449 20.4701L21.6986 20.8235L21.6989 20.8231L21.3449 20.4701ZM19.9924 21.8235L20.3455 22.1776L20.3461 22.1769L19.9924 21.8235ZM19.5465 21.8621L19.8348 21.4536L19.8336 21.4528L19.5465 21.8621ZM17.8402 20.6652L18.1274 20.2559L17.8709 20.076L17.5972 20.2283L17.8402 20.6652ZM16.6471 21.1643L16.5059 20.6847L16.2089 20.7721L16.1548 21.077L16.6471 21.1643ZM16.2836 23.213L15.7913 23.1257L15.7912 23.1263L16.2836 23.213ZM13.6855 23.2099L14.1788 23.1289L14.1787 23.1278L13.6855 23.2099ZM13.3459 21.1713L13.8392 21.0892L13.7874 20.7784L13.4848 20.691L13.3459 21.1713ZM12.1476 20.676L12.3885 20.2379L12.1157 20.0879L11.8608 20.2665L12.1476 20.676ZM10.4535 21.8624L10.1667 21.4529L10.166 21.4533L10.4535 21.8624ZM10.0079 21.8235L9.65424 22.1769L9.65438 22.177L10.0079 21.8235ZM8.65545 20.4701L8.30089 20.8226L8.30177 20.8235L8.65545 20.4701ZM8.61858 20.0217L9.02522 20.3127L9.0253 20.3126L8.61858 20.0217ZM9.81555 18.3477L10.2223 18.6385L10.4058 18.3818L10.2531 18.1057L9.81555 18.3477ZM9.31533 17.1442L9.79553 17.0049L9.70887 16.7062L9.40263 16.6519L9.31533 17.1442ZM7.28698 16.7845L7.19927 17.2768L7.19969 17.2768L7.28698 16.7845ZM7.29081 14.1859L7.37267 14.6792L7.37293 14.6791L7.29081 14.1859ZM9.31916 13.8482L9.40128 14.3414L9.71138 14.2897L9.79924 13.9879L9.31916 13.8482ZM9.81938 12.6447L10.257 12.8865L10.4078 12.6137L10.2292 12.3582L9.81938 12.6447ZM8.63701 10.9532L9.04682 10.6668L9.04608 10.6657L8.63701 10.9532ZM8.67597 10.508L8.32243 10.1544L8.32243 10.1544L8.67597 10.508ZM10.0281 9.156L9.67557 8.80141L9.67455 8.80243L10.0281 9.156ZM10.4765 9.11913L10.1859 9.52601L10.4765 9.11913ZM12.1566 10.3191L11.866 10.726L12.1214 10.9084L12.3967 10.7577L12.1566 10.3191ZM13.3522 9.828L13.4903 10.3085L13.7946 10.2211L13.8457 9.90859L13.3522 9.828ZM13.6848 7.79183L14.1782 7.87242L14.1782 7.87238L13.6848 7.79183ZM16.2839 7.788L16.7764 7.70173L16.7764 7.70145L16.2839 7.788ZM16.6426 9.8353L16.1501 9.92158L16.2038 10.2284L16.5029 10.3154L16.6426 9.8353ZM17.8364 10.3317L17.5945 10.7693L17.8714 10.9223L18.1282 10.7377L17.8364 10.3317ZM19.5211 9.12087L19.8129 9.52689L19.8135 9.52644L19.5211 9.12087ZM19.9702 9.15704L20.3236 8.80338L20.3232 8.80296L19.9702 9.15704ZM21.323 10.509L21.677 10.156L21.6764 10.1554L21.323 10.509ZM21.3619 10.955L20.9529 10.6674L20.9527 10.6678L21.3619 10.955ZM20.1618 12.6652L19.7526 12.378L19.5737 12.6328L19.7235 12.9057L20.1618 12.6652ZM22.7891 13.6921L20.7333 13.3561L20.572 14.343L22.6278 14.679L22.7891 13.6921ZM23.5 14.5299C23.5008 14.1135 23.1992 13.759 22.789 13.6921L22.628 14.679C22.5545 14.6671 22.4998 14.6033 22.5 14.5278L23.5 14.5299ZM23.5 16.4419V14.5289H22.5V16.4419H23.5ZM22.7987 17.277C23.2051 17.2057 23.5 16.8528 23.5 16.4419H22.5C22.5 16.3684 22.5528 16.3049 22.626 16.292L22.7987 17.277ZM20.7402 17.6384L22.7988 17.277L22.6259 16.2921L20.5673 16.6534L20.7402 17.6384ZM20.6025 18.572C20.8267 18.1638 21.0046 17.7325 21.134 17.2848L20.1734 17.007C20.0642 17.3844 19.9144 17.7475 19.726 18.0906L20.6025 18.572ZM21.7868 19.7285L20.57 18.0391L19.7586 18.6235L20.9754 20.3129L21.7868 19.7285ZM21.6989 20.8231C21.9915 20.5297 22.0304 20.0663 21.7866 19.7282L20.9755 20.3132C20.9314 20.252 20.939 20.1691 20.9909 20.117L21.6989 20.8231ZM20.3461 22.1769L21.6986 20.8235L20.9912 20.1167L19.6388 21.47L20.3461 22.1769ZM19.2581 22.2706C19.5973 22.51 20.0555 22.4667 20.3455 22.1776L19.6394 21.4694C19.69 21.4189 19.7726 21.4097 19.8348 21.4536L19.2581 22.2706ZM17.5531 21.0746L19.2593 22.2714L19.8336 21.4528L18.1274 20.2559L17.5531 21.0746ZM16.7883 21.644C17.2402 21.511 17.6741 21.3298 18.0833 21.1022L17.5972 20.2283C17.2536 20.4194 16.8881 20.5722 16.5059 20.6847L16.7883 21.644ZM16.7759 23.3004L17.1394 21.2517L16.1548 21.077L15.7913 23.1257L16.7759 23.3004ZM15.9413 24C16.3522 24 16.7046 23.7051 16.776 23.2998L15.7912 23.1263C15.8041 23.0528 15.8678 23 15.9413 23V24ZM14.0281 24H15.9413V23H14.0281V24ZM13.1921 23.291C13.2594 23.7012 13.6144 24 14.0281 24V23C14.1015 23 14.1664 23.0533 14.1788 23.1289L13.1921 23.291ZM12.8527 21.2534L13.1922 23.2921L14.1787 23.1278L13.8392 21.0892L12.8527 21.2534ZM11.9067 21.1141C12.3194 21.341 12.7554 21.5211 13.2071 21.6516L13.4848 20.691C13.1038 20.5808 12.7362 20.4291 12.3885 20.2379L11.9067 21.1141ZM10.7403 22.272L12.4344 21.0855L11.8608 20.2665L10.1667 21.4529L10.7403 22.272ZM9.65438 22.177C9.94477 22.4674 10.4033 22.5089 10.741 22.2715L10.166 21.4533C10.2276 21.4101 10.3097 21.4182 10.3615 21.4699L9.65438 22.177ZM8.30177 20.8235L9.65424 22.1769L10.3616 21.47L9.00912 20.1167L8.30177 20.8235ZM8.21193 19.7308C7.97045 20.0683 8.00967 20.5298 8.30089 20.8226L9.01001 20.1175C9.0612 20.169 9.06912 20.2513 9.02522 20.3127L8.21193 19.7308ZM9.40882 18.0568L8.21185 19.7309L9.0253 20.3126L10.2223 18.6385L9.40882 18.0568ZM8.83513 17.2835C8.96694 17.7378 9.14894 18.1753 9.37797 18.5896L10.2531 18.1057C10.0599 17.7562 9.90653 17.3874 9.79553 17.0049L8.83513 17.2835ZM7.19969 17.2768L9.22804 17.6365L9.40263 16.6519L7.37428 16.2922L7.19969 17.2768ZM6.5 16.4419C6.5 16.8531 6.79498 17.2047 7.19927 17.2768L7.37469 16.2923C7.44713 16.3052 7.5 16.3681 7.5 16.4419H6.5ZM6.5 14.5289V16.4419H7.5V14.5289H6.5ZM7.20895 13.6927C6.8 13.7605 6.5 14.1146 6.5 14.5289H7.5C7.5 14.6036 7.44628 14.6669 7.37267 14.6792L7.20895 13.6927ZM9.23703 13.355L7.20868 13.6927L7.37293 14.6791L9.40128 14.3414L9.23703 13.355ZM9.38174 12.4029C9.15339 12.8161 8.9715 13.2535 8.83908 13.7084L9.79924 13.9879C9.91101 13.6039 10.0645 13.235 10.257 12.8865L9.38174 12.4029ZM8.22721 11.2397L9.40957 12.9312L10.2292 12.3582L9.04682 10.6668L8.22721 11.2397ZM8.32243 10.1544C8.03209 10.4448 7.99052 10.9029 8.22794 11.2407L9.04608 10.6657C9.0894 10.7273 9.08123 10.8099 9.02951 10.8616L8.32243 10.1544ZM9.67455 8.80243L8.32243 10.1544L9.02951 10.8616L10.3816 9.50957L9.67455 8.80243ZM10.7671 8.71225C10.4287 8.47056 9.9682 8.5105 9.67557 8.80141L10.3806 9.51059C10.3294 9.5615 10.2467 9.56944 10.1859 9.52601L10.7671 8.71225ZM12.4472 9.91225L10.7671 8.71225L10.1859 9.52601L11.866 10.726L12.4472 9.91225ZM13.2141 9.34746C12.7616 9.47752 12.3267 9.65602 11.9165 9.88055L12.3967 10.7577C12.7414 10.569 13.1079 10.4185 13.4903 10.3085L13.2141 9.34746ZM13.1913 7.71123L12.8587 9.74741L13.8457 9.90859L14.1782 7.87242L13.1913 7.71123ZM14.0281 7C13.6127 7 13.2583 7.30095 13.1913 7.71127L14.1782 7.87238C14.1662 7.94601 14.1026 8 14.0281 8V7ZM15.9413 7H14.0281V8H15.9413V7ZM16.7764 7.70145C16.7053 7.297 16.354 7 15.9413 7V8C15.8667 8 15.8041 7.94648 15.7915 7.87455L16.7764 7.70145ZM17.1351 9.74903L16.7764 7.70173L15.7914 7.87427L16.1501 9.92158L17.1351 9.74903ZM18.0783 9.89405C17.6671 9.66675 17.2328 9.48623 16.7822 9.3552L16.5029 10.3154C16.8824 10.4258 17.2481 10.5778 17.5945 10.7693L18.0783 9.89405ZM19.2293 8.71485L17.5446 9.92564L18.1282 10.7377L19.8129 9.52689L19.2293 8.71485ZM20.3232 8.80296C20.0298 8.51047 19.5668 8.47152 19.2287 8.7153L19.8135 9.52644C19.7523 9.57057 19.6691 9.56293 19.6171 9.51112L20.3232 8.80296ZM21.6764 10.1554L20.3236 8.80338L19.6167 9.5107L20.9695 10.8627L21.6764 10.1554ZM21.771 11.2425C22.0086 10.9045 21.9666 10.4464 21.677 10.156L20.9689 10.8621C20.918 10.811 20.9094 10.7293 20.9529 10.6674L21.771 11.2425ZM20.5711 12.9524L21.7712 11.2422L20.9527 10.6678L19.7526 12.378L20.5711 12.9524ZM21.1327 13.7095C21.0021 13.262 20.8236 12.8318 20.6002 12.4247L19.7235 12.9057C19.912 13.2492 20.0625 13.6121 20.1727 13.9896L21.1327 13.7095ZM15 17.4348C13.9313 17.4348 13.065 16.5685 13.065 15.5H12.065C12.065 17.1209 13.3791 18.4348 15 18.4348V17.4348ZM16.935 15.5C16.935 16.5685 16.0687 17.4348 15 17.4348V18.4348C16.6209 18.4348 17.935 17.1209 17.935 15.5H16.935ZM15 13.5652C16.0687 13.5652 16.935 14.4315 16.935 15.5H17.935C17.935 13.8791 16.6209 12.5652 15 12.5652V13.5652ZM13.065 15.5C13.065 14.4315 13.9313 13.5652 15 13.5652V12.5652C13.3791 12.5652 12.065 13.8791 12.065 15.5H13.065Z" fill="#B0B0B0"/>
</svg>
