<?xml version="1.0" encoding="UTF-8"?>
<!--Generator: Apple Native CoreSVG 360-->
<!DOCTYPE svg
PUBLIC "-//W3C//DTD SVG 1.1//EN"
       "http://www.w3.org/Graphics/SVG/1.1/DTD/svg11.dtd">
<svg version="1.1" xmlns="http://www.w3.org/2000/svg" xmlns:xlink="http://www.w3.org/1999/xlink" viewBox="0 0 24.0234 23.6572">
 <g>
  <rect height="23.6572" opacity="0" width="24.0234" x="0" y="0"/>
  <path d="M23.6572 11.8213C23.6572 18.3545 18.3545 23.6426 11.8213 23.6426C5.30273 23.6426 0 18.3545 0 11.8213C0 5.28809 5.30273 0 11.8213 0C18.3545 0 23.6572 5.28809 23.6572 11.8213ZM11.153 0.815861C10.3254 0.983179 9.55639 1.46305 8.87914 2.19871C7.44762 2.63662 6.15215 3.38628 5.07639 4.37392C4.96498 4.30923 4.86832 4.23577 4.77539 4.16016C4.39453 3.86719 3.91113 3.82324 3.57422 4.14551C3.2373 4.46777 3.20801 4.99512 3.55957 5.33203C3.66762 5.43281 3.784 5.53138 3.91037 5.62688C2.73282 7.12287 1.97568 8.96406 1.8082 10.9717L1.56738 10.9717C1.09863 10.9717 0.717773 11.3525 0.717773 11.8213C0.717773 12.29 1.09863 12.6709 1.56738 12.6709L1.8082 12.6709C1.97708 14.6952 2.74542 16.5502 3.94024 18.0524C3.80198 18.1546 3.67595 18.2606 3.55957 18.3691C3.20801 18.7061 3.2373 19.2334 3.57422 19.5557C3.91113 19.8779 4.39453 19.834 4.77539 19.541C4.87956 19.4562 4.98843 19.3742 5.11282 19.3014C6.18173 20.2735 7.46502 21.0116 8.88145 21.4445C9.53498 22.1531 10.2732 22.6245 11.0655 22.8077C11.208 23.0857 11.5 23.2764 11.8213 23.2764C12.1532 23.2764 12.441 23.0854 12.58 22.8071C13.3721 22.6234 14.111 22.1519 14.7656 21.4437C16.1831 21.0103 17.4682 20.2717 18.5389 19.2991C18.6648 19.3727 18.7757 19.4555 18.8818 19.541C19.248 19.834 19.7461 19.8779 20.083 19.5557C20.4199 19.2334 20.4492 18.7061 20.0977 18.3691C19.9803 18.2597 19.8531 18.1528 19.7134 18.0498C20.9097 16.5481 21.6796 14.694 21.8489 12.6709L22.3682 12.6709C22.8369 12.6709 23.2178 12.29 23.2178 11.8213C23.2178 11.3525 22.8369 10.9717 22.3682 10.9717L21.8489 10.9717C21.681 8.96522 20.9223 7.125 19.7433 5.62945C19.8711 5.53317 19.9886 5.43372 20.0977 5.33203C20.4492 4.99512 20.4199 4.46777 20.083 4.14551C19.7461 3.82324 19.248 3.86719 18.8818 4.16016C18.787 4.23659 18.6884 4.31083 18.5754 4.37624C17.4979 3.38812 16.2006 2.63795 14.7679 2.19951C14.0901 1.46489 13.3212 0.985185 12.4948 0.816931C12.3401 0.613996 12.0958 0.483398 11.8213 0.483398C11.5558 0.483398 11.3104 0.613541 11.153 0.815861Z" fill="white" fill-opacity="0.85"/>
  <path d="M10.9717 21.0665L10.9717 22.4268C10.9717 22.5595 11.0034 22.6853 11.0601 22.7968C9.39564 22.4177 7.96897 20.7678 7.05613 18.3481C7.56563 18.1692 8.12711 18.0279 8.73246 17.9229C9.31752 19.4671 10.1065 20.6084 10.9717 21.0665ZM16.5958 18.3487C15.6798 20.7668 14.2497 22.416 12.5854 22.7961C12.6405 22.6847 12.6709 22.5593 12.6709 22.4268L12.6709 21.0697C13.5425 20.613 14.3357 19.4706 14.9231 17.9238C15.5271 18.0289 16.0872 18.1701 16.5958 18.3487ZM8.22864 16.3166C7.63586 16.4334 7.07489 16.5804 6.55482 16.7536C6.23097 15.5208 6.03162 14.1429 5.98314 12.6709L7.71036 12.6709C7.76345 13.9628 7.94716 15.2018 8.22864 16.3166ZM17.0996 16.7531C16.5803 16.5805 16.0201 16.4339 15.4279 16.3172C15.7099 15.2023 15.8937 13.9631 15.9469 12.6709L17.674 12.6709C17.6252 14.1427 17.4248 15.5204 17.0996 16.7531ZM8.2183 7.3826C7.94644 8.48121 7.76741 9.69913 7.71155 10.9717L5.98438 10.9717C6.03554 9.52062 6.23038 8.1621 6.54533 6.94459C7.06514 7.11799 7.62582 7.26532 8.2183 7.3826ZM17.6727 10.9717L15.9457 10.9717C15.8898 9.69888 15.7106 8.48073 15.4383 7.38196C16.0302 7.26488 16.5901 7.11793 17.1091 6.94503C17.4254 8.16242 17.6213 9.5208 17.6727 10.9717ZM10.9717 1.33301L10.9717 2.57621C10.0977 3.03949 9.30149 4.20113 8.71407 5.77551C8.10941 5.6693 7.54823 5.52712 7.03876 5.34766C7.96587 2.85232 9.4326 1.1667 11.1496 0.820381C11.0385 0.962434 10.9717 1.14029 10.9717 1.33301ZM16.6132 5.34704C16.1046 5.52621 15.5449 5.66827 14.9415 5.77463C14.3517 4.19762 13.5513 3.03487 12.6709 2.57303L12.6709 1.33301C12.6709 1.14095 12.607 0.963641 12.4985 0.821841C14.2141 1.17015 15.6833 2.8546 16.6132 5.34704Z" fill="white" fill-opacity="0.85"/>
  <path d="M11.8213 23.2764C12.29 23.2764 12.6709 22.8955 12.6709 22.4268L12.6709 1.33301C12.6709 0.864258 12.29 0.483398 11.8213 0.483398C11.3672 0.483398 10.9717 0.864258 10.9717 1.33301L10.9717 22.4268C10.9717 22.8955 11.3672 23.2764 11.8213 23.2764ZM4.77539 19.541C6.26953 18.3252 8.73047 17.666 11.8213 17.666C14.9268 17.666 17.373 18.3252 18.8818 19.541C19.248 19.834 19.7461 19.8779 20.083 19.5557C20.4199 19.2334 20.4492 18.7061 20.0977 18.3691C18.5742 16.9482 15.3955 15.9668 11.8213 15.9668C8.26172 15.9668 5.08301 16.9482 3.55957 18.3691C3.20801 18.7061 3.2373 19.2334 3.57422 19.5557C3.91113 19.8779 4.39453 19.834 4.77539 19.541ZM1.56738 12.6709L22.3682 12.6709C22.8369 12.6709 23.2178 12.29 23.2178 11.8213C23.2178 11.3525 22.8369 10.9717 22.3682 10.9717L1.56738 10.9717C1.09863 10.9717 0.717773 11.3525 0.717773 11.8213C0.717773 12.29 1.09863 12.6709 1.56738 12.6709ZM11.8213 7.73438C15.3955 7.73438 18.5742 6.75293 20.0977 5.33203C20.4492 4.99512 20.4199 4.46777 20.083 4.14551C19.7461 3.82324 19.248 3.86719 18.8818 4.16016C17.373 5.37598 14.9268 6.03516 11.8213 6.03516C8.73047 6.03516 6.26953 5.37598 4.77539 4.16016C4.39453 3.86719 3.91113 3.82324 3.57422 4.14551C3.2373 4.46777 3.20801 4.99512 3.55957 5.33203C5.08301 6.75293 8.26172 7.73438 11.8213 7.73438Z" fill="white" fill-opacity="0.85"/>
 </g>
</svg>
